<?xml version="1.0" encoding="UTF-8"?>
<!DOCTYPE svg PUBLIC "-//W3C//DTD SVG 1.1//EN" "http://www.w3.org/Graphics/SVG/1.1/DTD/svg11.dtd">
<!-- Creator: CorelDRAW 2020 (64 Bit) -->
<svg xmlns="http://www.w3.org/2000/svg" xml:space="preserve" width="19.1688mm" height="1.4985mm" version="1.1" style="shape-rendering:geometricPrecision; text-rendering:geometricPrecision; image-rendering:optimizeQuality; fill-rule:evenodd; clip-rule:evenodd"
viewBox="0 0 9713.52 759.34"
 xmlns:xlink="http://www.w3.org/1999/xlink"
 xmlns:xodm="http://www.corel.com/coreldraw/odm/2003">
 <defs>
  <style type="text/css">
   <![CDATA[
    .fil0 {fill:#FEFEFE;fill-rule:nonzero}
   ]]>
  </style>
 </defs>
 <g id="Camada_x0020_1">
  <metadata id="CorelCorpID_0Corel-Layer"/>
  <path class="fil0" d="M9119.67 759.34c-165.85,0 -303.69,-27.11 -412.58,-81.18 -57.21,-28.28 -100.84,-61.06 -130.64,-98.1 -32.23,-40.13 -48.49,-84.78 -48.49,-133.63 0,-48.9 16.11,-93.44 48.29,-133.68 29.69,-37.19 73.17,-69.78 130.13,-97.85 55.28,-27.01 117.51,-47.23 186.73,-60.45 68.51,-13.12 144.17,-19.71 226.56,-19.71 167.73,0 306.37,26.7 415.32,79.96 57.06,27.97 100.59,60.66 130.23,97.75 32.18,40.23 48.29,84.93 48.29,133.98 0,49 -16.22,93.8 -48.49,134.03 -29.75,37.04 -73.43,69.83 -130.64,98.1 -54.83,27.16 -117.31,47.53 -186.99,60.91 -68.76,13.23 -144.72,19.86 -227.73,19.86zm0 -163.42c57.26,0 108.85,-4.31 154.5,-12.82 44.9,-8.36 84.52,-20.93 118.63,-37.45 31.57,-15.25 54.88,-32.03 69.47,-50.07 12.06,-14.85 18.09,-31.32 18.09,-49.15 0,-17.38 -6.13,-33.75 -18.19,-48.6 -14.9,-18.14 -38.31,-35.07 -70.08,-50.47 -34.31,-16.52 -73.98,-29.14 -118.78,-37.55 -45.56,-8.51 -96.79,-12.87 -153.64,-12.87 -56.91,0 -108.09,4.31 -153.44,12.82 -44.29,8.31 -83.61,20.83 -117.61,37.4 -31.62,15.2 -54.78,31.98 -69.27,49.96 -12.21,15 -18.24,31.47 -18.24,49.31 0,17.84 6.03,34.31 18.04,49.1 14.7,18.14 37.85,34.91 69.27,50.12 34.26,16.57 73.53,29.14 117.82,37.45 45.35,8.51 96.53,12.82 153.44,12.82z"/>
  <path class="fil0" d="M8709.82 341.29c21.03,-26.1 50.93,-49.2 89.39,-69.17 -18.7,6.84 -36.54,14.44 -53.46,22.7 -45.1,22.3 -78.54,46.87 -99.98,73.63 -18.9,23.51 -28.43,49.66 -28.43,77.99 0,28.12 9.63,54.12 28.63,77.78 21.54,26.86 55.18,51.59 100.54,73.98 17.28,8.56 35.42,16.37 54.52,23.41 -39.37,-20.12 -69.83,-43.58 -91.21,-70.03 -25.39,-31.47 -38.11,-66.69 -38.11,-105.15 0,-38.46 12.72,-73.68 38.11,-105.15z"/>
  <path class="fil0" d="M9531.4 551.84c-21.84,26.96 -53.16,50.72 -93.8,71.1 20.17,-7.3 39.32,-15.4 57.36,-24.32 45.35,-22.4 79,-47.13 100.54,-73.98 19.05,-23.72 28.63,-49.86 28.63,-78.19 0,-28.58 -9.53,-54.83 -28.43,-78.44 -21.33,-26.65 -54.68,-51.18 -99.83,-73.32 -18.65,-9.12 -38.36,-17.33 -59.19,-24.68 41.1,20.67 72.62,44.54 94.56,71.35 25.59,31.62 38.51,66.64 38.51,105.1 0,38.66 -12.77,73.83 -38.36,105.4z"/>
  <polygon class="fil0" points="8244.19,236.24 8244.19,654.2 8296.28,654.2 8296.28,236.24 "/>
  <polygon class="fil0" points="8154.8,698.89 8154.8,146.85 8385.67,146.85 8385.67,743.58 8154.8,743.58 "/>
  <polygon class="fil0" points="7278.6,237.46 7278.6,654.2 7328.56,654.2 7328.56,237.46 "/>
  <polygon class="fil0" points="7189.21,698.89 7189.21,148.07 7417.95,148.07 7417.95,581.38 8082.99,581.38 8082.99,743.58 7189.21,743.58 "/>
  <path class="fil0" d="M6457.33 759.34c-165.8,0 -303.69,-27.11 -412.58,-81.18 -57.21,-28.28 -100.84,-61.06 -130.64,-98.1 -32.23,-40.18 -48.44,-84.78 -48.44,-133.63 0,-95.67 59.54,-173 178.37,-231.53 55.28,-27.01 117.51,-47.23 186.73,-60.45 68.51,-13.12 144.17,-19.71 226.56,-19.71 167.73,0 306.37,26.7 415.32,79.96 57.06,27.97 100.59,60.66 130.23,97.75 32.18,40.23 48.29,84.93 48.29,133.98 0,49 -16.22,93.8 -48.49,134.03 -29.75,37.04 -73.32,69.78 -130.59,98.1 -54.93,27.16 -117.36,47.53 -187.04,60.91 -68.76,13.23 -144.72,19.86 -227.73,19.86zm0 -163.42c57.31,0 108.95,-4.31 154.71,-12.87 44.8,-8.36 84.37,-20.88 118.42,-37.4 31.42,-15.2 54.63,-31.82 69.32,-49.86 12.16,-15.05 18.29,-31.57 18.29,-49.36 0,-17.38 -6.13,-33.75 -18.24,-48.6 -14.9,-18.14 -38.31,-35.07 -70.08,-50.47 -34.31,-16.52 -73.98,-29.14 -118.78,-37.55 -45.5,-8.51 -96.84,-12.87 -153.64,-12.87 -56.86,0 -108.09,4.31 -153.44,12.82 -44.29,8.31 -83.61,20.83 -117.61,37.4 -31.62,15.2 -54.73,31.98 -69.27,49.96 -12.16,15.05 -18.24,31.52 -18.24,49.31 0,37.9 29.14,71.04 87.31,99.22 34.26,16.57 73.53,29.14 117.82,37.45 45.35,8.51 96.58,12.82 153.44,12.82z"/>
  <path class="fil0" d="M6047.49 341.29c21.03,-26.05 50.93,-49.2 89.44,-69.17 -18.75,6.84 -36.59,14.44 -53.51,22.7 -85.54,42.21 -128.36,92.83 -128.36,151.62 0,28.12 9.58,54.07 28.58,77.78 21.54,26.86 55.18,51.59 100.54,73.98 17.28,8.56 35.42,16.37 54.52,23.41 -86.2,-44.09 -129.32,-102.56 -129.32,-175.18 0,-38.61 12.72,-73.73 38.11,-105.15z"/>
  <path class="fil0" d="M6869.21 551.73c-21.99,27.06 -53.41,50.88 -94.05,71.25 20.22,-7.3 39.37,-15.4 57.51,-24.37 45.35,-22.4 78.95,-47.13 100.49,-73.98 19.05,-23.72 28.63,-49.86 28.63,-78.19 0,-28.58 -9.53,-54.83 -28.43,-78.44 -21.33,-26.65 -54.68,-51.18 -99.83,-73.32 -18.65,-9.12 -38.36,-17.33 -59.19,-24.68 41.1,20.67 72.62,44.54 94.56,71.35 25.69,31.62 38.56,66.64 38.56,105.1 0,38.61 -12.77,73.83 -38.26,105.3z"/>
  <polygon class="fil0" points="5073.79,654.2 5073.79,237.46 5023.83,237.46 5023.83,654.2 "/>
  <polygon class="fil0" points="5163.18,510.54 5163.18,743.58 4934.44,743.58 4934.44,148.07 5849.61,148.07 5849.61,311.49 5163.18,311.49 5163.18,348.33 5607.28,348.33 5607.28,510.54 "/>
  <polygon class="fil0" points="4573.39,236.24 4573.39,654.2 4625.48,654.2 4625.48,236.24 "/>
  <polygon class="fil0" points="4484,698.89 4484,146.85 4714.87,146.85 4714.87,743.58 4484,743.58 "/>
  <polygon class="fil0" points="3915.14,263.15 3915.14,654.2 3965.21,654.2 3965.21,237.46 3915.14,237.46 "/>
  <polygon class="fil0" points="3825.75,698.89 3825.75,307.84 3448.18,307.84 3448.18,148.07 4432.06,148.07 4432.06,307.84 4054.6,307.84 4054.6,743.58 3825.75,743.58 "/>
  <path class="fil0" d="M2681.7 522.7l0 220.89 -228.74 0 0 -594.3 659.57 0c48.04,0 91.36,3.4 129.83,10.08 39.78,6.89 74.64,17.58 104.39,31.87 32.63,15.76 57.51,35.17 74.64,58.07 18.75,25.39 28.23,53.97 28.23,85.84 0,26.76 -7.6,51.74 -22.7,74.74 -13.63,20.62 -33.34,39.32 -59.14,55.89 -23.87,15.46 -51.33,27.87 -81.94,37.14l-4.21 1.37 268.52 239.28 -285.95 0 -253.82 -220.89 -328.67 0zm0 -163.42l430.83 0c22.3,0 41.25,-1.27 56.65,-3.75 14.19,-2.23 25.74,-5.52 34.71,-9.73 6.13,-2.79 10.24,-5.52 12.11,-8.06l0 -5.12c-1.62,-2.33 -5.57,-4.92 -11.4,-7.55 -9.37,-4.36 -21.13,-7.65 -35.27,-9.88 -15.4,-2.43 -34.41,-3.7 -56.81,-3.7l-430.83 0 0 47.79z"/>
  <polygon class="fil0" points="2592.31,266.8 2592.31,238.67 2542.34,238.67 2542.34,654.2 2592.31,654.2 "/>
  <path class="fil0" d="M3287.25 391.15c-7.96,10.59 -18.29,19.76 -30.96,27.52l3.85 -1.11c22.55,-6.74 42.41,-15.71 59.09,-26.45 15.2,-9.73 26.15,-19.71 32.99,-30.05 5.27,-8.06 8.01,-16.77 8.01,-25.89 0,-12.31 -3.5,-23.21 -10.34,-32.48 -8.67,-11.55 -22.65,-21.99 -41.7,-31.16 -13.83,-6.59 -29.54,-12.21 -47.13,-16.87 10.34,6.94 19.05,15.05 26,24.17 12.57,16.42 18.85,35.17 18.85,56.15 0,20.88 -6.28,39.68 -18.65,56.2z"/>
  <polygon class="fil0" points="3084.86,448.66 3061.44,448.66 3297.63,654.2 3315.62,654.2 "/>
  <path class="fil0" d="M1718.95 759.34c-165.85,0 -303.69,-27.11 -412.58,-81.18 -57.21,-28.28 -100.89,-61.11 -130.64,-98.15 -32.28,-40.13 -48.49,-84.73 -48.49,-133.58 0,-48.9 16.16,-93.49 48.29,-133.63 29.64,-37.14 73.12,-69.83 130.13,-97.9 55.28,-27.01 117.51,-47.23 186.73,-60.45 68.51,-13.12 144.17,-19.71 226.56,-19.71 167.73,0 306.37,26.7 415.32,79.96 57.06,27.97 100.59,60.66 130.23,97.75 32.18,40.23 48.29,84.93 48.29,133.98 0,49 -16.22,93.8 -48.49,134.03 -29.75,37.04 -73.32,69.78 -130.59,98.1 -54.93,27.16 -117.36,47.53 -187.04,60.91 -68.76,13.23 -144.72,19.86 -227.73,19.86zm0 -163.42c57.26,0 108.85,-4.31 154.5,-12.82 44.9,-8.36 84.52,-20.93 118.63,-37.45 31.42,-15.2 54.63,-31.82 69.32,-49.86 12.16,-15.05 18.29,-31.57 18.29,-49.36 0,-17.38 -6.13,-33.75 -18.24,-48.6 -14.9,-18.14 -38.31,-35.07 -70.08,-50.47 -34.31,-16.52 -73.98,-29.14 -118.78,-37.55 -45.5,-8.51 -96.84,-12.87 -153.64,-12.87 -56.91,0 -108.09,4.31 -153.44,12.82 -44.29,8.31 -83.61,20.83 -117.61,37.4 -31.62,15.2 -54.78,31.98 -69.27,49.96 -12.21,15 -18.24,31.47 -18.24,49.31 0,17.84 6.03,34.31 18.04,49.1 14.7,18.14 37.85,34.91 69.27,50.12 34.26,16.57 73.53,29.14 117.82,37.45 45.35,8.51 96.53,12.82 153.44,12.82z"/>
  <path class="fil0" d="M1309.1 341.29c21.03,-26.1 50.93,-49.2 89.39,-69.17 -18.7,6.84 -36.54,14.44 -53.46,22.7 -45.1,22.3 -78.49,46.87 -99.98,73.68 -18.9,23.51 -28.43,49.61 -28.43,77.94 0,28.07 9.58,54.07 28.63,77.73 21.54,26.86 55.18,51.64 100.54,74.03 17.28,8.56 35.42,16.37 54.52,23.41 -39.37,-20.12 -69.83,-43.58 -91.21,-70.03 -25.39,-31.47 -38.11,-66.69 -38.11,-105.15 0,-38.46 12.72,-73.68 38.11,-105.15z"/>
  <path class="fil0" d="M2130.82 551.73c-21.99,27.06 -53.41,50.88 -94.05,71.25 20.22,-7.3 39.37,-15.4 57.51,-24.37 45.35,-22.4 78.95,-47.13 100.49,-73.98 19.05,-23.72 28.63,-49.86 28.63,-78.19 0,-28.58 -9.53,-54.83 -28.43,-78.44 -21.33,-26.65 -54.68,-51.18 -99.83,-73.32 -18.65,-9.12 -38.36,-17.33 -59.19,-24.68 41.1,20.67 72.62,44.54 94.56,71.35 25.69,31.62 38.56,66.64 38.56,105.1 0,38.61 -12.77,73.83 -38.26,105.3z"/>
  <path class="fil0" d="M-0 698.89l0 -698.89 708.21 0c58.63,0 111.38,4.21 158.2,12.52 48.34,8.77 90.5,21.89 126.23,39.42 38.87,18.85 68.61,42.16 88.98,69.47 22.09,29.59 33.09,63.09 33.09,100.28 0,37.4 -10.49,71.6 -31.27,102.26 -19.46,28.63 -47.89,53.61 -85.08,74.39 -34.96,19.81 -75.71,34.76 -121.62,44.44 -44.9,9.53 -94.81,14.34 -149.54,14.34l-494.07 0 0 286.46 -233.15 0 0 -44.69zm233.15 -407.62l465.84 0c34.36,0 64,-2.08 88.63,-6.13 23.11,-3.8 42.06,-9.32 56.6,-16.47 11.91,-5.68 20.27,-12.06 25.18,-19.05 3.85,-5.42 5.83,-12.47 5.83,-20.83 0,-7.85 -1.98,-14.7 -5.88,-20.22 -4.97,-7.25 -13.58,-13.99 -25.64,-20.07 -15,-7.8 -33.39,-13.58 -55.23,-17.58 -23.01,-4.16 -50.52,-6.28 -82.4,-6.28l-472.94 0 0 126.63z"/>
  <polygon class="fil0" points="143.76,119.94 143.76,89.39 89.39,89.39 89.39,654.2 143.76,654.2 "/>
  <path class="fil0" d="M883.34 348.63l-4.36 2.08c28.33,-7.5 53.56,-17.48 75.4,-29.85 25.39,-14.09 43.78,-29.8 55.39,-46.87 10.34,-15.25 15.56,-32.74 15.56,-52.3 0,-17.58 -5.07,-33.24 -15.25,-46.87 -11.76,-15.76 -30.66,-30.1 -56.5,-42.67 -21.89,-10.84 -47.13,-19.56 -75.71,-26.25l5.98 2.94c25.18,12.77 44.8,29.04 58.43,48.49 14.95,21.08 22.35,45.1 22.35,71.45 0,26.81 -7.45,50.83 -22.25,71.96 -13.63,19.51 -33.34,35.52 -59.03,47.89z"/>
 </g>
</svg>
